<?xml version="1.0" standalone="no"?>
<!DOCTYPE svg PUBLIC "-//W3C//DTD SVG 20010904//EN"
 "http://www.w3.org/TR/2001/REC-SVG-20010904/DTD/svg10.dtd">
<svg version="1.0" xmlns="http://www.w3.org/2000/svg"
 width="842.000000pt" height="842.000000pt" viewBox="0 0 842.000000 842.000000"
 preserveAspectRatio="xMidYMid meet">

<g transform="translate(0.000000,842.000000) scale(0.100000,-0.100000)"
fill="#000000" stroke="none">
<path d="M3925 7954 c-258 -26 -438 -57 -650 -111 -1405 -359 -2483 -1511
-2754 -2943 -47 -251 -56 -361 -56 -690 0 -329 9 -442 56 -690 252 -1325 1195
-2417 2466 -2853 1363 -468 2855 -124 3872 894 1018 1017 1362 2509 894 3872
-436 1272 -1534 2219 -2858 2466 -231 43 -334 52 -635 56 -162 1 -313 1 -335
-1z m652 -309 c1331 -140 2459 -1043 2899 -2320 115 -333 170 -644 181 -1015
23 -823 -226 -1575 -741 -2240 -104 -135 -431 -462 -566 -566 -516 -400 -1070
-633 -1710 -719 -162 -22 -534 -30 -700 -16 -838 73 -1586 417 -2165 996 -581
581 -931 1326 -1005 2143 -18 191 -8 607 19 782 90 603 305 1121 661 1595 581
772 1450 1264 2410 1364 147 15 557 12 717 -4z"/>
<path d="M2168 4420 c-308 -52 -579 -275 -698 -574 -18 -44 -44 -122 -58 -175
-23 -87 -26 -113 -26 -286 0 -173 3 -198 26 -287 79 -292 227 -498 515 -714
608 -458 1594 -704 2573 -644 760 47 1418 250 1910 588 354 243 534 490 605
829 74 356 -34 756 -269 1001 -76 80 -215 172 -317 212 -164 63 -55 60 -2233
59 -1089 -1 -2002 -5 -2028 -9z m691 -455 c77 -36 126 -78 181 -158 102 -144
146 -317 137 -542 -6 -158 -31 -264 -92 -385 -46 -90 -137 -188 -212 -225 -49
-25 -70 -30 -133 -30 -65 0 -84 4 -142 33 -126 62 -228 208 -280 402 -19 71
-22 111 -23 245 0 136 4 173 23 245 58 214 180 376 321 426 62 22 159 17 220
-11z m2960 -4 c335 -173 416 -849 142 -1188 -247 -304 -612 -130 -707 337 -13
65 -15 116 -11 239 6 179 18 234 82 366 63 132 150 221 253 260 57 22 186 14
241 -14z m-965 -1283 c102 -46 68 -189 -78 -333 -94 -92 -176 -140 -311 -181
-82 -25 -104 -28 -255 -28 -190 -1 -263 14 -406 85 -132 65 -258 196 -295 306
-25 78 29 153 112 153 46 0 83 -29 113 -88 112 -221 500 -302 772 -164 85 43
139 94 170 160 15 31 39 67 53 79 29 26 84 30 125 11z"/>
</g>
</svg>
